<svg width="44" height="36" viewBox="0 0 44 36" fill="none" xmlns="http://www.w3.org/2000/svg">
<path d="M3.32259 32.649C9.14786 37.6708 16.0267 34.1999 17.7309 32.4275C19.4351 30.6551 21.0835 27.1104 19.4351 22.9747C18.9916 21.862 18.4989 21.3126 17.9633 21.0052C16.7214 20.2924 15.249 20.8806 13.6253 18.7651C11.3014 15.7372 19.6709 5.53327 20.5196 2.29663C21.0618 0.228712 19.1829 -0.752771 17.3435 0.671926C14.8647 2.59192 6.73099 12.8572 4.71694 15.7373C2.70288 18.6175 -3.959 26.3718 3.32259 32.649Z" fill="url(#paint0_linear_230_153)"/>
<path d="M26.7078 33.3948C32.5331 38.4166 39.4119 34.9456 41.1161 33.1732C42.8203 31.4008 44.4688 27.8561 42.8203 23.7204C42.3768 22.6078 41.8841 22.0583 41.3485 21.7509C40.1066 21.0381 38.6342 21.6263 37.0105 19.5108C34.6866 16.483 43.0561 6.279 43.9048 3.04236C44.4471 0.974439 42.5682 -0.0070439 40.7288 1.41765C38.25 3.33764 30.1162 13.6029 28.1022 16.4831C26.0881 19.3632 19.4263 27.1175 26.7078 33.3948Z" fill="url(#paint1_linear_230_153)"/>
<defs>
<linearGradient id="paint0_linear_230_153" x1="20.6221" y1="17.6113" x2="-0.496032" y2="13.4762" gradientUnits="userSpaceOnUse">
<stop stop-color="#F89E1B"/>
<stop offset="1" stop-color="#FFCF02"/>
</linearGradient>
<linearGradient id="paint1_linear_230_153" x1="44.0074" y1="18.3571" x2="22.8892" y2="14.2219" gradientUnits="userSpaceOnUse">
<stop stop-color="#F89E1B"/>
<stop offset="1" stop-color="#FFCF02"/>
</linearGradient>
</defs>
</svg>
